<?xml version="1.0" standalone="no"?>
<!DOCTYPE svg PUBLIC "-//W3C//DTD SVG 20010904//EN" "http://www.w3.org/TR/2001/REC-SVG-20010904/DTD/svg10.dtd">
<!-- Created using Krita: http://krita.org -->
<svg xmlns="http://www.w3.org/2000/svg" 
    xmlns:xlink="http://www.w3.org/1999/xlink"
    xmlns:krita="http://krita.org/namespaces/svg/krita"
    xmlns:sodipodi="http://sodipodi.sourceforge.net/DTD/sodipodi-0.dtd"
    width="245.76pt"
    height="245.76pt"
    viewBox="0 0 245.76 245.76">
<defs/>
<ellipse id="shape0" transform="matrix(1.8324208366 0 0 1.8324208366 70.140614567 74.508893359)" rx="10.68" ry="11.16" cx="10.68" cy="11.16" fill="none" stroke="#000000" stroke-width="0.96" stroke-linecap="square" stroke-linejoin="bevel"/><ellipse id="shape1" transform="matrix(1.8324208366 0 0 1.8324208366 124.67345867 67.912178347)" rx="15.6" ry="15.84" cx="15.6" cy="15.84" fill="none" stroke="#000000" stroke-width="0.96" stroke-linecap="square" stroke-linejoin="bevel"/><path id="shape2" transform="matrix(1.8324208366 0 0 1.8324208366 108.94981317 97.218313844)" fill="#000000" fill-rule="evenodd" d="M0.0138483 0.656614C-0.456441 -1.03643 11.2098 1.07922 10.9078 1.07922"/><path id="shape3" transform="matrix(1.8324208366 0 0 1.8324208366 110.00195 107.20296157)" fill="#000000" fill-rule="evenodd" d="M2.75793 0.391731C3.29499 -1.54167 1.52646 4.21152 0.87967 6.11103C-1.73773 13.7979 2.31967 10.8934 2.31967 12.3938"/><path id="shape4" transform="matrix(1.8324208366 0 0 1.8324208366 50.580934128 17.846147001)" fill="#000000" fill-rule="evenodd" d="M9.17162 28.7863C9.06495 29.1704 8.04191 28.2029 7.85684 28.0538C6.55128 27.0025 5.28801 25.8111 4.16293 24.5603C1.69895 21.8209 0.891682 18.4997 0.343795 14.9248C0.148263 13.6489 -0.303814 11.834 0.31249 10.586C0.70438 9.79242 1.23871 9.46531 1.90901 8.89556C3.90935 7.19527 7.76717 7.31312 10.0481 8.38843C11.9631 9.29119 13.6841 10.9336 15.9647 10.5015C17.8048 10.1528 18.5071 7.8988 19.3768 6.52895C20.6922 4.45731 23.3134 1.19401 25.7942 0.556083C28.4509 -0.127065 31.2559 0.894086 31.9925 3.71156C32.5607 5.88486 31.5312 8.91515 34.9038 8.69834C35.8903 8.63493 36.5821 7.90303 37.3768 7.40234C40.6468 5.34225 43.7709 -0.59785 48.0829 0.0489521C49.1174 0.204125 50.0866 0.904206 50.8377 1.59852C51.9081 2.58789 53.124 3.77174 53.5299 5.23295C53.9192 6.63449 53.6393 8.12017 54.0621 9.51539C54.2972 10.2914 56.0275 12.5826 56.8481 13.0371C58.7786 14.1063 60.8311 14.4235 62.8899 15.1502C68.8593 17.257 74.7276 19.5576 79.2308 24.2222C82.4687 27.5762 85.4081 32.0635 85.4916 36.8723C85.5408 39.7056 84.2168 42.8128 83.1125 45.3526C83.0064 45.5967 81.8669 47.4417 81.6412 47.2966C81.0353 46.9071 80.7757 45.6078 80.5455 44.9863C80.0061 43.5298 79.3403 41.9609 78.6673 40.563C77.2674 37.6556 74.7674 34.9435 72.5629 32.6462C69.5387 29.4947 65.4008 25.9041 61.2934 24.2503C58.4124 23.0904 54.8112 22.9216 51.7455 23.1516C48.1634 23.4202 44.9585 25.4618 41.3212 25.4618"/><path id="shape5" transform="matrix(1.8324208366 0 0 1.8324208366 62.004908159 138.32442946)" fill="#000000" fill-rule="evenodd" d="M29.139 6.76411C28.4713 5.56226 30.6427 5.88392 31.8312 5.77802C36.1777 5.39071 40.4995 5.57814 44.8538 5.52445C50.4209 5.45582 54.991 4.30511 60.1929 2.56619C61.425 2.15431 62.7446 1.80096 63.9494 1.32654C64.1694 1.23994 65.0487 0.773413 65.2955 0.932105C66.0674 1.42834 65.6393 4.20688 65.5773 4.87645C65.1849 9.11432 63.3003 13.319 61.4451 17.0758C59.5539 20.9054 57.9639 25.2549 55.4033 28.7116C53.7861 30.8949 51.9974 32.9807 50.332 35.1352C49.278 36.4989 48.4763 38.0668 47.546 39.5022C46.9453 40.4289 45.9129 41.2033 45.4173 42.2069C45.0728 42.9044 44.1138 45.0048 43.4451 45.5314C41.4163 47.1291 37.9623 47.856 35.5877 48.7151C34.0345 49.2769 32.4296 49.8425 30.7668 49.9547C29.2112 50.0597 27.7047 49.369 26.1964 48.9968C24.1139 48.4829 22.0668 48.2058 19.9355 48.0107C17.2512 47.765 14.6666 46.7143 12.1094 45.8977C8.97951 44.8981 5.84376 43.5843 3.09378 41.7843C1.86225 40.9782 0.784762 40.3801 0.213781 38.9669C-0.678593 36.7583 1.48264 35.6236 1.93552 33.5857C3.40304 26.9818 5.37313 20.2663 8.41552 14.1457C9.93905 11.0807 11.6919 7.66184 12.1407 4.22845C12.2579 3.33179 12.4395 0.719534 13.1738 0.0587138C13.4064 -0.150668 14.0404 0.261176 14.2694 0.340453C15.4521 0.749842 16.4428 1.51783 17.5877 2.00271C19.8299 2.95237 22.1022 3.99475 24.3807 4.76376C26.522 5.48644 29.2294 6.13851 30.4851 8.1728C31.2805 9.4614 31.679 12.1132 30.3912 13.2723C28.9843 14.5384 27.0067 14.9725 26.259 16.9912C25.5834 18.8154 25.5695 21.0844 25.3825 23.0205C25.2432 24.4619 24.7523 25.8764 24.6625 27.3311C24.4748 30.3713 24.0584 33.3237 21.7825 35.5297C20.271 36.9947 18.432 39.1253 16.0225 38.8542C15.6776 38.8154 15.0654 38.5004 15.146 38.0653C15.1921 37.816 16.2571 37.0795 16.4607 36.713C17.42 34.9862 18.0159 32.964 18.3703 31.05C19.2199 26.4621 19.8093 21.379 21.8451 17.1039C22.4045 15.9292 23.7503 14.7332 24.5686 13.7512C24.6336 13.6732 23.7891 13.204 23.7233 13.1596C23.0206 12.6852 21.5193 12.0878 21.3129 11.1592C20.6964 8.38474 21.3968 4.59153 24.7564 4.08758C25.402 3.99074 25.4756 5.4327 26.1338 5.5808"/><path id="shape6" transform="matrix(1.8324208366 0 0 1.8324208366 148.92212687 154.90130028)" fill="#000000" fill-rule="evenodd" d="M15.4208 0.591412C15.2675 0.177654 16.2993 0.117123 16.579 0.0842816C17.9389 -0.0753534 19.4941 -0.0414116 20.7738 0.478716C23.7428 1.68547 25.44 6.1142 25.5008 9.01541C25.5343 10.6162 25.504 12.2687 25.1251 13.8332C24.7377 15.4332 24.2308 17.4319 23.153 18.7354C19.8596 22.7183 12.9386 22.6267 8.3773 24.2575C6.40287 24.9634 4.47105 25.5548 2.6173 26.5678C1.9931 26.9088 1.40209 27.2504 0.832954 27.6665C0.554668 27.87 0.306598 28.5733 0.0503455 28.3427C-0.0585349 28.2447 0.0418059 27.3976 0.0503455 27.2439C0.114281 26.0931 0.352246 24.9886 0.457302 23.8067C0.521603 23.0833 0.446443 23.6888 0.676432 22.5389C1.17864 20.0278 1.81187 17.779 3.93208 16.1434C4.72905 15.5286 6.12346 16.1948 7.06252 15.9744C8.53334 15.629 9.72929 14.748 11.1008 14.1994C12.3231 13.7105 13.6932 13.3652 14.7947 12.6217C16.3116 11.5977 13.5494 9.03883 12.8538 8.45193C12.7967 8.40374 11.9773 7.86142 11.9773 7.74759C11.9773 7.64282 12.1856 7.71941 12.2903 7.71941"/><path id="shape7" transform="matrix(1.8324208366 0 0 1.8324208366 38.52 143.16416853)" fill="#000000" fill-rule="evenodd" d="M26.8666 3.05232C27.9619 1.40935 24.098 0.987373 23.3918 0.911107C23.0475 0.873913 22.7032 0.835605 22.3588 0.798411C21.8532 0.74381 21.3579 0.653286 20.8562 0.57302C17.8226 0.0876444 13.6555 -0.359276 10.651 0.43215C8.27814 1.05719 6.15094 2.38533 4.10837 3.67215C1.86849 5.08327 0.998405 7.70237 0.28924 10.0958C0.0714667 10.8308 -0.264172 12.4169 0.351849 13.0822C1.53297 14.3578 4.54777 16.2439 4.89098 18.0972C5.36003 20.63 2.87561 22.8956 4.79707 25.3661C5.53735 26.3179 6.60219 26.4907 7.73968 26.7466C9.32793 27.1039 11.1709 27.6509 12.811 27.2819C15.606 26.653 16.9313 23.9494 17.6632 21.5344C17.9254 20.6689 18.3659 18.8269 17.8823 17.9563C16.9918 16.3535 14.9716 15.9478 13.1553 16.1814C12.3799 16.2811 11.7383 17.0278 10.9953 17.1393C10.4753 17.2173 10.2119 16.5337 9.89968 16.604C9.70718 16.6473 10.2518 18.1178 10.2753 18.2662C10.39 18.9886 10.0687 19.8102 9.3675 20.1257C7.63011 20.9075 6.5385 19.0313 5.67359 18.0972C5.27744 17.6694 4.447 16.946 4.67185 16.2377C5.13935 14.7651 6.76977 14.4228 8.05272 15.0826C8.83744 15.4862 9.07195 16.5796 9.74315 16.9421C9.87219 17.0117 10.9003 16.7115 10.8701 16.5758C10.7845 16.1903 9.68874 15.3509 9.43011 14.8854C8.15027 12.5817 6.41714 9.32094 8.6475 6.91215C9.4725 6.02116 10.18 5.25051 11.3084 4.74276C12.1317 4.37225 13.8301 4.66345 14.6579 4.9118C15.8249 5.26189 17.3206 4.79994 18.4458 5.30624C19.3746 5.72421 20.1734 6.36379 21.0753 6.82763C21.6971 7.14739 22.0331 8.1168 22.6718 8.46172C23.817 9.08012 25.4965 10.4339 26.804 10.4339C27.0006 10.4339 26.4963 10.1864 26.3658 10.0395"/>
</svg>
