<?xml version="1.0" standalone="no"?>
<!DOCTYPE svg PUBLIC "-//W3C//DTD SVG 20010904//EN" "http://www.w3.org/TR/2001/REC-SVG-20010904/DTD/svg10.dtd">
<!-- Created using Krita: http://krita.org -->
<svg xmlns="http://www.w3.org/2000/svg" 
    xmlns:xlink="http://www.w3.org/1999/xlink"
    xmlns:krita="http://krita.org/namespaces/svg/krita"
    xmlns:sodipodi="http://sodipodi.sourceforge.net/DTD/sodipodi-0.dtd"
    width="245.76pt"
    height="245.76pt"
    viewBox="0 0 245.76 245.76">
<defs/>
<rect id="shape0" transform="translate(23.28, 127.92)" fill="#000000" fill-rule="evenodd" stroke="#000000" stroke-width="14.4" stroke-linecap="square" stroke-linejoin="bevel" width="197.28" height="72.48"/><rect id="shape1" transform="translate(16.32, 60.48)" fill="none" stroke="#000000" stroke-width="2.4" stroke-linecap="square" stroke-linejoin="bevel" width="210.96" height="73.2"/><rect id="shape2" transform="translate(111.67968805, 56.671182687)" fill="none" stroke="#000000" stroke-width="2.4" stroke-linecap="square" stroke-linejoin="bevel" width="21.280311952" height="2.4606995516"/><path id="shape0" transform="matrix(0.28462544667 0 0 0.28462544178 152.06644285 98.475252926)" fill="none" stroke="#ffffff" stroke-width="2.4" stroke-linecap="square" stroke-linejoin="miter" stroke-miterlimit="2" d="M77.4798 0L0 90.1404"/><path id="shape1" transform="matrix(0.28462544667 0 0 0.28462544178 155.20660347 102.40607933)" fill="none" stroke="#ffffff" stroke-width="2.4" stroke-linecap="square" stroke-linejoin="miter" stroke-miterlimit="2" d="M0 85.677L75.8626 0"/><path id="shape01" transform="matrix(0.28462543828 0 0 0.28462544252 149.39679477 91.80113322)" fill="#000000" fill-rule="evenodd" stroke="#000000" stroke-width="2.4" stroke-linecap="square" stroke-linejoin="bevel" d="M6.79206 129.049L0 107.703L81.6485 0L132.068 44.4395L34.5712 136.132Z"/><path id="shape2" transform="matrix(0.28462544667 0 0 0.28462544178 170.73352147 70.379510088)" fill="#000000" fill-rule="evenodd" stroke="#000000" stroke-width="2.4" stroke-linecap="square" stroke-linejoin="bevel" d="M6.79206 80.5021L0 33.7339L32.439 0L86.0687 7.7947L91.3874 12.9049L71.9455 32.1167L66.4831 26.6184L41.3992 26.3273L23.9339 42.4666L28.9651 84.9978L47.5444 102.207L86.5359 99.0024L106.014 78.982L97.2451 51.7814L93.5436 48.4824L114.279 25.1953L121.251 32.3431L136.272 81.8282L97.8919 123.486L36.4399 124.942Z"/><path id="shape02" transform="matrix(0.043892593399 -0.40305724862 0.40305726175 0.043892594829 53.750575558 145.9627703)" fill="#000000" fill-rule="evenodd" stroke="#000000" stroke-width="2.4" stroke-linecap="square" stroke-linejoin="bevel" d="M6.79206 129.049L0 107.703L81.6485 0L132.068 44.4395L34.5712 136.132Z"/><path id="shape03" transform="matrix(0.043892594692 -0.40305726049 0.4030572607 0.043892594715 36.47320122 139.1567372)" fill="#000000" fill-rule="evenodd" stroke="#000000" stroke-width="2.4" stroke-linecap="square" stroke-linejoin="bevel" d="M70.0768 42.3695L56.8521 20.3115L0 17.1742L89.4827 0L174.976 71.125L190.573 54.8863L205.738 71.125L146.263 132.575L134.691 121.966L149.964 104.339L95.3284 75.2948Z"/><path id="shape04" transform="matrix(0.41106795194 -0.15179659505 0.15179660258 0.41106797233 86.754361481 105.80679461)" fill="#000000" fill-rule="evenodd" stroke="#000000" stroke-width="2.4" stroke-linecap="square" stroke-linejoin="bevel" d="M6.79206 129.049L0 107.703L81.6485 0L132.068 44.4395L34.5712 136.132Z"/><path id="shape05" transform="matrix(0.40670147111 -0.16313488926 0.16313489172 0.4067014784 103.30093772 68.44339019)" fill="#000000" fill-rule="evenodd" stroke="#000000" stroke-width="2.4" stroke-linecap="square" stroke-linejoin="bevel" d="M0 120.442L97.2523 14.319L107.03 14.2711L127.691 0L130.019 1.62824L113.665 18.8206L114.014 25.2857L8.14801 129.829Z"/><rect id="shape06" transform="matrix(0.99999997207 0 0 1.0000000165 118.3199967 122.88000203)" fill="none" stroke="#ffffff" stroke-width="2.4" stroke-linecap="square" stroke-linejoin="bevel" width="4.56" height="16.08"/>
</svg>
