<?xml version="1.0" standalone="no"?>
<!DOCTYPE svg PUBLIC "-//W3C//DTD SVG 20010904//EN" "http://www.w3.org/TR/2001/REC-SVG-20010904/DTD/svg10.dtd">
<!-- Created using Krita: http://krita.org -->
<svg xmlns="http://www.w3.org/2000/svg" 
    xmlns:xlink="http://www.w3.org/1999/xlink"
    xmlns:krita="http://krita.org/namespaces/svg/krita"
    xmlns:sodipodi="http://sodipodi.sourceforge.net/DTD/sodipodi-0.dtd"
    width="245.76pt"
    height="245.76pt"
    viewBox="0 0 245.76 245.76">
<defs/>
<path id="shape0" transform="translate(7.935613643, 6.6342033196)" fill="none" stroke="#000000" stroke-width="1.92" stroke-linecap="square" stroke-linejoin="bevel" d="M0.547865 228.023C-5.10779 74.3908 33.0244 -1.60829 114.944 0.0257967C196.864 1.65988 235.522 77.983 230.917 228.995C230.76 228.854 153.97 228.53 0.547865 228.023Z"/><ellipse id="shape1" transform="matrix(0.36026797981 0 0 0.36026797981 138.78782631 118.56950963)" rx="57.24" ry="56.76" cx="57.24" cy="56.76" fill="#000000" fill-rule="evenodd" stroke="#000000" stroke-width="1.92" stroke-linecap="square" stroke-linejoin="bevel"/><rect id="shape2" transform="matrix(0.36026797981 0 0 0.36026797981 153.31383126 149.69666308)" fill="#000000" fill-rule="evenodd" stroke="#000000" stroke-width="1.92" stroke-linecap="square" stroke-linejoin="bevel" width="34.32" height="53.76"/><path id="shape3" transform="translate(31.022608746, 69.966782723)" fill="none" stroke="#000000" stroke-width="3.36" stroke-linecap="square" stroke-linejoin="miter" stroke-miterlimit="2" d="M0 0L7.10543e-15 164.102"/><path id="shape4" transform="translate(54.313043567, 34.552173969)" fill="none" stroke="#000000" stroke-width="3.36" stroke-linecap="square" stroke-linejoin="miter" stroke-miterlimit="2" d="M0 0L1.42109e-14 199.516"/><path id="shape5" transform="translate(78.026087084, 17.18295655)" fill="none" stroke="#000000" stroke-width="3.36" stroke-linecap="square" stroke-linejoin="miter" stroke-miterlimit="2" d="M0 0L1.42109e-14 216.377"/><path id="shape6" transform="translate(101.41043495, 10.801565235)" fill="none" stroke="#000000" stroke-width="3.36" stroke-linecap="square" stroke-linejoin="miter" stroke-miterlimit="2" d="M0 0L0 221.914"/><path id="shape7" transform="translate(122.88, 8.6462608837)" fill="none" stroke="#000000" stroke-width="3.36" stroke-linecap="square" stroke-linejoin="miter" stroke-miterlimit="2" d="M0 0L2.84217e-14 224.944"/><path id="shape8" transform="translate(146.34782633, 11.055130453)" fill="none" stroke="#000000" stroke-width="3.36" stroke-linecap="square" stroke-linejoin="miter" stroke-miterlimit="2" d="M0 0L0 222.589"/><path id="shape9" transform="translate(170.06086984, 19.760869597)" fill="none" stroke="#000000" stroke-width="3.36" stroke-linecap="square" stroke-linejoin="miter" stroke-miterlimit="2" d="M0 0L0 214.55"/><path id="shape10" transform="translate(193.16347858, 39.412173977)" fill="none" stroke="#000000" stroke-width="3.36" stroke-linecap="square" stroke-linejoin="miter" stroke-miterlimit="2" d="M0 0L0 194.402"/><path id="shape11" transform="translate(215.74956557, 73.981565338)" fill="none" stroke="#000000" stroke-width="3.36" stroke-linecap="square" stroke-linejoin="miter" stroke-miterlimit="2" d="M0 0L0 160.634"/>
</svg>
