<?xml version="1.0" standalone="no"?>
<!DOCTYPE svg PUBLIC "-//W3C//DTD SVG 20010904//EN" "http://www.w3.org/TR/2001/REC-SVG-20010904/DTD/svg10.dtd">
<!-- Created using Krita: http://krita.org -->
<svg xmlns="http://www.w3.org/2000/svg" 
    xmlns:xlink="http://www.w3.org/1999/xlink"
    xmlns:krita="http://krita.org/namespaces/svg/krita"
    xmlns:sodipodi="http://sodipodi.sourceforge.net/DTD/sodipodi-0.dtd"
    width="245.76pt"
    height="245.76pt"
    viewBox="0 0 245.76 245.76">
<defs/>
<path id="shape0" transform="translate(10.471304296, 40.856869362)" fill="#000000" fill-rule="evenodd" stroke="#000000" stroke-width="3.84" stroke-linecap="square" stroke-linejoin="bevel" d="M221.4 6.5927L220.696 30.8927L207.078 42.3454L155.473 47.628L101.614 52.0654L66.0209 143.433L27.3287 145.758L4.6487 144.11L0 134.516L0.093913 122.387L19.7687 76.1541L15.9652 63.4758L3.89739 54.601L2.20696 46.5715L17.4209 24.6381L11.5983 11.8753L18.313 6.93078L31.8365 8.87478L38.4574 4.01478L43.2939 0L46.44 4.77548L210.224 5.02904L212.243 1.47913L217.315 1.56365L221.4 6.5927Z"/><path id="shape1" transform="translate(119.17565158, 84.30104306)" fill="none" stroke="#000000" stroke-width="3.84" stroke-linecap="square" stroke-linejoin="bevel" d="M0 0C4.51614 20.3226 2.81793 22.3774 20.7078 30.4278C21.3159 30.7014 22.7216 31.0758 21.1774 30.5546"/><path id="shape2" transform="translate(94.045431772, 81.173738728)" fill="#000000" fill-rule="evenodd" d="M55.2294 7.90278C55.2294 12.5309 63.0679 14.832 61.1928 22.1447C49.9571 65.964 2.35713 13.2173 0.00848081 42.8103C-0.222157 45.7163 4.31645 41.823 5.69022 41.3734C13.7147 38.7472 17.4785 43.283 25.1302 43.909C38.4224 44.9966 52.6861 40.4345 61.7094 31.2308C71.4464 21.299 84.075 0 62.9772 0C60.1322 0 54.5378 2.33591 54.8537 1.05652"/>
</svg>
