<?xml version="1.0" standalone="no"?>
<!DOCTYPE svg PUBLIC "-//W3C//DTD SVG 20010904//EN" "http://www.w3.org/TR/2001/REC-SVG-20010904/DTD/svg10.dtd">
<!-- Created using Krita: http://krita.org -->
<svg xmlns="http://www.w3.org/2000/svg" 
    xmlns:xlink="http://www.w3.org/1999/xlink"
    xmlns:krita="http://krita.org/namespaces/svg/krita"
    xmlns:sodipodi="http://sodipodi.sourceforge.net/DTD/sodipodi-0.dtd"
    width="245.76pt"
    height="245.76pt"
    viewBox="0 0 245.76 245.76">
<defs/>
<rect id="shape0" transform="matrix(2.2630435128 0 0 2.2630435128 50.759549633 93.858901666)" fill="#000000" fill-rule="evenodd" stroke="#000000" stroke-width="0.96" stroke-linecap="square" stroke-linejoin="bevel" width="38.16" height="14.64"/><rect id="shape1" transform="matrix(2.2630435128 0 0 2.2630435128 51.302680076 10.216813434)" fill="#000000" fill-rule="evenodd" stroke="#000000" stroke-width="0.96" stroke-linecap="square" stroke-linejoin="bevel" width="38.16" height="24.72"/><rect id="shape2" transform="matrix(2.2630435128 0 0 2.2630435128 50.21641919 62.900466412)" fill="#000000" fill-rule="evenodd" stroke="#000000" stroke-width="0.96" stroke-linecap="square" stroke-linejoin="bevel" width="4.8" height="15.84"/><rect id="shape3" transform="matrix(2.2630435128 0 0 2.2630435128 124.62528989 52.037857551)" fill="#000000" fill-rule="evenodd" stroke="#000000" stroke-width="0.96" stroke-linecap="square" stroke-linejoin="bevel" width="6.24" height="22.08"/><rect id="shape4" transform="matrix(2.2630435128 0 0 2.2630435128 50.21641919 9.1305525481)" fill="#000000" fill-rule="evenodd" stroke="#000000" stroke-width="0.96" stroke-linecap="square" stroke-linejoin="bevel" width="51.6" height="11.28"/><path id="shape5" transform="matrix(2.2630435128 0 0 2.2630435128 129.07660463 21.498384202)" fill="#000000" fill-rule="evenodd" d="M16.247 4.70826C16.0775 4.74639 17.0176 6.47038 17.0765 6.62409C17.5048 7.74192 17.8254 8.97838 18.0157 10.1599C18.5959 13.763 18.6496 17.519 18.5635 21.1618C18.381 28.8807 15.6647 37.1156 10.2052 42.7571C8.72985 44.2817 7.05538 44.9397 5.16522 45.7295C4.27622 46.101 3.17307 46.6621 2.17565 46.4057C1.07076 46.1215 1.0183 44.8638 1.00174 43.9545C0.951785 41.212 1.4182 38.5114 1.20522 35.7559C0.897814 31.7789 0.507386 27.6715 0.563478 23.6834C0.585427 22.1228 0.928972 20.5771 0.892174 19.0206C0.777169 14.1559 0 9.31551 0 4.44061C0 2.76842 1.68554 1.34597 2.97391 0.552608C3.7851 0.0530896 4.33009 -0.401471 4.72696 0.580782"/><path id="shape6" transform="matrix(2.2630435128 0 0 2.2630435128 57.846383765 123.77476879)" fill="#000000" fill-rule="evenodd" d="M39.3641 0C39.4932 0.0774846 39.3788 0.573182 39.3485 0.873391C39.2409 1.93847 39.2346 3.01684 39.2076 4.08522C39.0978 8.43077 40.0926 12.8743 40.3345 17.2283C40.5585 21.2592 41.1141 25.2644 41.2737 29.2868C41.3012 29.9805 42.3228 32.202 42.0093 32.7663C41.7955 33.1512 40.5459 33.3997 40.2406 33.5129C38.3835 34.2011 36.4685 34.7001 34.5902 35.3301C26.122 38.1704 17.6933 37.306 9.13976 35.4005C6.02523 34.7067 3.60769 33.9806 1.5015 31.6111C1.07221 31.1282 0.26541 30.753 0.0301908 30.1179C-0.146547 29.6407 0.502468 29.0402 0.687582 28.6951C1.15057 27.832 1.32854 26.8681 1.59541 25.9341C2.20842 23.7885 3.25276 21.7798 3.83367 19.6231C4.40531 17.5009 4.71127 15.1661 5.00758 12.9882C5.38581 10.2082 5.87751 7.45283 5.97802 4.6487C6.015 3.61701 6.34211 2.58727 6.25976 1.54957C6.2267 1.13308 5.90191 0.172931 5.55541 1.05652"/><path id="shape7" transform="matrix(2.2630435128 0 0 2.2630435128 14.655507994 109.88782937)" fill="#000000" fill-rule="evenodd" d="M26.1746 14.2505C20.5221 16.7941 11.4744 14.4079 9.58332 7.81275C9.09034 6.09349 8.73605 4.13975 9.00419 2.34701C9.04456 2.07708 9.53533 0.120336 9.4268 0.0226603C9.2609 -0.126646 7.72505 0.509445 7.48593 0.543878C5.64861 0.808451 3.79486 1.16141 1.96071 1.3891C1.78254 1.41121 0.0519795 1.56773 0.0041909 1.82579C-0.0427499 2.07927 0.318834 2.63595 0.379843 2.91049C0.697735 4.341 1.35232 5.58855 1.8981 6.93936C2.59431 8.66246 2.78227 10.6158 3.82332 12.1938C6.89762 16.8538 11.1228 19.5325 16.4077 21.2376C19.2597 22.1578 22.0999 23.0321 25.1103 22.8154C25.9499 22.7549 27.2298 22.1412 27.7398 21.4067C27.8617 21.2312 28.4296 20.0622 28.1311 20.2234"/><path id="shape8" transform="matrix(2.2630435128 0 0 2.2630435128 5.7316903462 86.38862087)" fill="#000000" fill-rule="evenodd" d="M12.5875 11.449C12.5278 11.4356 13.2531 10.3152 13.3231 10.0966C13.6485 9.0816 13.9107 8.09894 13.6205 7.03977C12.2712 2.11482 7.88959 -1.84255 2.74225 0.89786C-0.35864 2.54876 -0.593453 5.94334 0.863994 8.94151C1.67151 10.6027 3.58653 10.6397 4.8866 11.5758C5.25739 11.8427 5.04781 12.5701 5.35617 12.8013C5.85546 13.1758 6.94487 13.4916 7.10921 12.8999"/><path id="shape9" transform="matrix(2.2630435128 0 0 2.2630435128 15.80999868 50.448860071)" fill="#000000" fill-rule="evenodd" d="M5.44187 18.7935C5.93441 18.9412 6.67631 18.4383 7.11665 18.2582C10.1604 17.013 10.597 13.4994 10.341 10.5808C10.173 8.66594 9.02596 5.78595 7.78969 4.28389C7.56446 4.01024 5.73428 2.49356 5.81752 2.04407C5.88728 1.66736 7.8961 -0.260574 8.541 0.0296306C8.81638 0.153552 9.01511 0.826677 9.15143 1.07207C9.67201 2.0091 10.3606 2.81854 10.8575 3.76267C11.3607 4.71868 12.2201 5.45422 12.501 6.5378C13.5576 10.6131 13.066 15.7347 10.388 19.0329C8.41788 21.4592 4.72463 23.6427 1.99839 25.0058C1.58685 25.2116 1.05731 26.0198 0.761868 26.33C0.524695 26.579 -0.139419 27.1007 0.0262153 27.1752"/><path id="shape10" transform="matrix(2.2630435128 0 0 2.2630435128 167.44637513 117.91780884)" fill="#000000" fill-rule="evenodd" d="M1.01375 2.77122C0.942538 3.0276 1.50553 2.56773 1.74941 2.46131C2.27911 2.23016 2.88213 2.05485 3.43984 1.91192C5.56403 1.3675 7.73111 0.895761 9.90419 0.601829C14.0894 0.0357332 18.3942 -0.0383689 22.6138 0.0383507C24.3026 0.0690565 26.8051 -0.213569 28.4364 0.404612C28.842 0.558325 28.9053 1.72942 28.9372 2.02461C29.1705 4.18355 29.0245 6.2793 29.4381 8.43418C30.6414 14.7038 31.6604 21.1305 32.2085 27.4938C32.3744 29.4194 33.3267 32.9247 31.8642 34.7345C31.576 35.0912 30.614 35.16 30.2677 35.2276C28.9191 35.4908 27.5543 35.6389 26.1981 35.8615C20.2472 36.8381 14.1042 37.0928 8.07289 36.7912C6.04916 36.69 2.82715 37.1896 2.01549 34.9317C1.35842 33.1039 1.36873 30.7969 1.27984 28.8884C1.01075 23.1106 2.06741 17.1162 0.700711 11.4347C0.464884 10.4543 -0.200213 8.90518 0.0589721 7.84252C0.319508 6.77433 0.934869 5.83428 1.29549 4.79974C1.52244 4.14868 1.61861 1.72071 1.51462 2.09505"/><path id="shape11" transform="matrix(2.2630435128 0 0 2.2630435128 143.70032787 130.78252875)" fill="#000000" fill-rule="evenodd" d="M0.205854 3.56652C0.133047 3.5829 1.77612 2.30544 2.27194 2.04513C3.62377 1.33542 5.72489 0.242696 7.23368 0.0729568C8.10751 -0.0253489 8.94602 -0.0321874 9.81629 0.101131C13.9438 0.733432 14.9557 3.01837 15.7015 7.046C15.7526 7.32208 15.2971 6.65483 15.0754 6.48252C14.6129 6.12305 14.0184 5.95026 13.4319 5.97539C11.2821 6.06753 8.9693 5.5633 6.87368 6.10217C4.83075 6.6275 3.29521 7.87382 1.73977 9.21539C1.22777 9.65699 -0.411175 11.3892 0.0962894 11.0467"/><path id="shape12" transform="matrix(2.2630435128 0 0 2.2630435128 3.5657142857 108.30208779)" fill="#000000" fill-rule="evenodd" d="M2.80719 0.0612853C2.80715 0.0611912 2.42354 0.713201 2.36893 0.836068C2.07854 1.48944 1.81599 2.12907 1.58632 2.80824C1.44824 3.21656 1.24444 3.5986 1.0698 3.99155C0.599819 5.049 -0.893265 8.56745 0.756754 9.16146C2.80149 9.89756 3.05157 8.43984 3.90284 6.90755C4.68931 5.49191 5.26839 4.10449 5.89067 2.61102C6.19359 1.88402 6.75154 0.889831 6.75154 0.0753722C6.75154 -0.222026 6.26141 0.439349 6.1098 0.695198"/><path id="shape13" transform="matrix(2.2630435128 0 0 2.2630435128 4.0890334642 125.38256427)" fill="#000000" fill-rule="evenodd" d="M1.01073 1.20537C0.540221 1.20537 0.0514257 3.25275 0.0246384 3.69876C-0.137125 6.39212 0.513467 8.70857 1.51159 11.1789C4.37984 18.2778 10.989 24.6811 18.369 26.8436C20.646 27.5109 23.0858 27.9241 25.4594 27.9706C25.5503 27.9724 27.8845 28.0921 27.8229 27.7593C27.7578 27.4079 26.3755 27.3735 26.1638 27.3648C24.6393 27.3025 22.8216 26.7861 21.4055 26.2238C16.0742 24.107 11.3071 21.799 7.72551 17.1941C5.04259 13.7446 3.40913 10.0195 1.9029 5.95267C1.45923 4.75477 1.23475 3.2524 1.15159 1.98015C1.11892 1.48018 1.05836 1.07311 1.12029 0.571456C1.13356 0.46401 1.10192 -0.207629 1.02638 0.0643255"/><path id="shape14" transform="matrix(2.2630435128 0 0 2.2630435128 150.0791002 181.47647676)" fill="#000000" fill-rule="evenodd" d="M0.0167501 4.11339C-0.122438 4.11339 0.645746 3.97525 0.846315 3.91617C1.45075 3.73814 2.06559 3.6127 2.67762 3.46539C4.9907 2.90864 7.09741 2.17069 9.20458 1.09878C9.59121 0.902104 10.8548 0.187221 10.7854 0"/>
</svg>
