<?xml version="1.0" standalone="no"?>
<!DOCTYPE svg PUBLIC "-//W3C//DTD SVG 20010904//EN" "http://www.w3.org/TR/2001/REC-SVG-20010904/DTD/svg10.dtd">
<!-- Created using Krita: http://krita.org -->
<svg xmlns="http://www.w3.org/2000/svg" 
    xmlns:xlink="http://www.w3.org/1999/xlink"
    xmlns:krita="http://krita.org/namespaces/svg/krita"
    xmlns:sodipodi="http://sodipodi.sourceforge.net/DTD/sodipodi-0.dtd"
    width="245.76pt"
    height="245.76pt"
    viewBox="0 0 245.76 245.76">
<defs/>
<path id="shape0" transform="matrix(1.4250944887 0 0 1.4250944887 35.4 21.587379757)" fill="#000000" fill-rule="evenodd" d="M2.83158 10.8157C2.34098 10.926 3.56977 11.971 4.17767 12.4497C24.6508 28.5724 31.6799 -16.8744 38.362 7.18122C44.0671 27.7194 26.732 27.115 18.8907 38.8769C15.756 43.579 20.6067 50.2257 19.7359 55.8094C12.9103 99.5785 22.5423 154.447 80.6855 137.457C89.8506 134.779 99.7126 132.428 107.075 125.934C127.477 107.94 123.425 61.9848 98.9046 48.0897C85.1652 40.3041 34.6994 38.5799 34.6994 32.3969C34.6994 31.5516 34.6681 29.8612 34.6681 29.8612C34.6681 29.8612 26.1566 44.1558 20.0177 42.3141C13.5738 40.3809 2.9142 26.5869 0.421148 19.0143C-1.35941 13.6058 3.08202 8.5562 3.08202 11.3228"/><text id="shape0" transform="matrix(1.4250944424 0 0 1.4250944954 97.933408753 196.15725189)" fill="#ffffff" font-size="72" font-size-adjust="0.415625" font-weight="600"><tspan x="0">$</tspan></text>
</svg>
