<?xml version="1.0" standalone="no"?>
<!DOCTYPE svg PUBLIC "-//W3C//DTD SVG 20010904//EN" "http://www.w3.org/TR/2001/REC-SVG-20010904/DTD/svg10.dtd">
<!-- Created using Krita: http://krita.org -->
<svg xmlns="http://www.w3.org/2000/svg" 
    xmlns:xlink="http://www.w3.org/1999/xlink"
    xmlns:krita="http://krita.org/namespaces/svg/krita"
    xmlns:sodipodi="http://sodipodi.sourceforge.net/DTD/sodipodi-0.dtd"
    width="245.76pt"
    height="245.76pt"
    viewBox="0 0 245.76 245.76">
<defs/>
<rect id="shape0" transform="matrix(1.1980341885 0 0 1.1980341885 7.7270889696 26.550437326)" fill="#000000" fill-rule="evenodd" stroke="#000000" stroke-width="3.36" stroke-linecap="square" stroke-linejoin="bevel" width="194.16" height="22.32"/><rect id="shape1" transform="matrix(1.1980341885 0 0 1.1980341885 7.1520325591 60.622529555)" fill="#000000" fill-rule="evenodd" stroke="#000000" stroke-width="3.36" stroke-linecap="square" stroke-linejoin="bevel" width="195.36" height="12.48"/><rect id="shape0" transform="matrix(1.1980341864 0 0 1.1980342344 6.5424435999 82.957694256)" fill="#000000" fill-rule="evenodd" stroke="#000000" stroke-width="3.36" stroke-linecap="square" stroke-linejoin="bevel" width="195.36" height="12.48"/><rect id="shape01" transform="matrix(1.1980341863 0 0 1.198034192 6.6034025125 104.64728354)" fill="#000000" fill-rule="evenodd" stroke="#000000" stroke-width="3.36" stroke-linecap="square" stroke-linejoin="bevel" width="195.36" height="12.48"/><rect id="shape02" transform="matrix(1.1980341843 0 0 1.1980342379 6.2813417971 126.61025232)" fill="#000000" fill-rule="evenodd" stroke="#000000" stroke-width="3.36" stroke-linecap="square" stroke-linejoin="bevel" width="195.36" height="12.48"/><rect id="shape03" transform="matrix(1.1980341863 0 0 1.1980342167 5.9106905853 148.35598873)" fill="#000000" fill-rule="evenodd" stroke="#000000" stroke-width="3.36" stroke-linecap="square" stroke-linejoin="bevel" width="195.36" height="12.48"/><rect id="shape04" transform="matrix(1.1980341843 0 0 1.1980342626 5.3011016272 170.69115396)" fill="#000000" fill-rule="evenodd" stroke="#000000" stroke-width="3.36" stroke-linecap="square" stroke-linejoin="bevel" width="195.36" height="12.48"/><rect id="shape01" transform="matrix(1.1980341842 0 0 1.1980342203 5.3620605396 192.38074376)" fill="#000000" fill-rule="evenodd" stroke="#000000" stroke-width="3.36" stroke-linecap="square" stroke-linejoin="bevel" width="195.36" height="12.48"/><rect id="shape02" transform="matrix(1.1980341822 0 0 1.1980342662 5.0399998248 214.34371306)" fill="#000000" fill-rule="evenodd" stroke="#000000" stroke-width="3.36" stroke-linecap="square" stroke-linejoin="bevel" width="195.36" height="12.48"/><ellipse id="shape2" transform="matrix(1.1980341885 0 0 1.1980341885 13.200541083 13.170373923)" rx="8.76" ry="6.6" cx="8.76" cy="6.6" fill="none" stroke="#000000" stroke-width="3.36" stroke-linecap="square" stroke-linejoin="bevel"/><ellipse id="shape05" transform="matrix(1.1980341855 0 0 1.1980341558 37.020847885 13.042706469)" rx="8.6690200716" ry="6.6" cx="8.6690200716" cy="6.6" fill="none" stroke="#000000" stroke-width="3.36" stroke-linecap="square" stroke-linejoin="bevel"/><ellipse id="shape06" transform="matrix(1.1980341855 0 0 1.1980341558 59.860587568 12.688296716)" rx="8.76" ry="6.6" cx="8.76" cy="6.6" fill="none" stroke="#000000" stroke-width="3.36" stroke-linecap="square" stroke-linejoin="bevel"/><ellipse id="shape07" transform="matrix(1.1980341855 0 0 1.1980341558 81.462705888 12.637666751)" rx="8.76" ry="6.6" cx="8.76" cy="6.6" fill="none" stroke="#000000" stroke-width="3.36" stroke-linecap="square" stroke-linejoin="bevel"/><ellipse id="shape08" transform="matrix(1.1980341892 0 0 1.1980341558 102.35280159 12.690937459)" rx="8.76" ry="6.6" cx="8.76" cy="6.6" fill="none" stroke="#000000" stroke-width="3.36" stroke-linecap="square" stroke-linejoin="bevel"/><ellipse id="shape09" transform="matrix(1.1980341862 0 0 1.1980341231 126.1731084 12.563270008)" rx="8.6690200716" ry="6.6" cx="8.6690200716" cy="6.6" fill="none" stroke="#000000" stroke-width="3.36" stroke-linecap="square" stroke-linejoin="bevel"/><ellipse id="shape011" transform="matrix(1.1980341862 0 0 1.1980341231 149.0128481 12.208860265)" rx="8.76" ry="6.6" cx="8.76" cy="6.6" fill="none" stroke="#000000" stroke-width="3.36" stroke-linecap="square" stroke-linejoin="bevel"/><ellipse id="shape021" transform="matrix(1.1980341862 0 0 1.1980341231 170.61496643 12.158230302)" rx="8.76" ry="6.6" cx="8.76" cy="6.6" fill="none" stroke="#000000" stroke-width="3.36" stroke-linecap="square" stroke-linejoin="bevel"/><ellipse id="shape012" transform="matrix(1.1980342355 0 0 1.198034114 192.03879541 11.326806924)" rx="8.76" ry="6.6" cx="8.76" cy="6.6" fill="none" stroke="#000000" stroke-width="3.36" stroke-linecap="square" stroke-linejoin="bevel"/><ellipse id="shape022" transform="matrix(1.1980342355 0 0 1.198034114 213.64091463 11.276176961)" rx="8.76" ry="6.6" cx="8.76" cy="6.6" fill="none" stroke="#000000" stroke-width="3.36" stroke-linecap="square" stroke-linejoin="bevel"/><path id="shape3" transform="matrix(1.1980341885 0 0 1.1980341885 96.777485592 89.727254989)" fill="#ffffff" fill-rule="evenodd" stroke="#ffffff" stroke-width="3.36" stroke-linecap="square" stroke-linejoin="bevel" d="M118.894 29.1177L91.3304 0L5.0713 82.2819L0 112.752L32.5878 110.09L118.894 29.1177Z"/>
</svg>
