<?xml version="1.0" standalone="no"?>
<!DOCTYPE svg PUBLIC "-//W3C//DTD SVG 20010904//EN" "http://www.w3.org/TR/2001/REC-SVG-20010904/DTD/svg10.dtd">
<!-- Created using Krita: http://krita.org -->
<svg xmlns="http://www.w3.org/2000/svg" 
    xmlns:xlink="http://www.w3.org/1999/xlink"
    xmlns:krita="http://krita.org/namespaces/svg/krita"
    xmlns:sodipodi="http://sodipodi.sourceforge.net/DTD/sodipodi-0.dtd"
    width="245.76pt"
    height="245.76pt"
    viewBox="0 0 245.76 245.76">
<defs/>
<rect id="shape0" transform="matrix(1.2733921079 0 0 1.2733921079 51.649144544 65.137207072)" fill="#000000" fill-rule="evenodd" stroke="#000000" stroke-width="0.96" stroke-linecap="square" stroke-linejoin="bevel" width="97.08235072" height="25.68"/><rect id="shape1" transform="matrix(1.2733921079 0 0 1.2733921079 40.507826153 106.39511137)" fill="#000000" fill-rule="evenodd" stroke="#000000" stroke-width="0.96" stroke-linecap="square" stroke-linejoin="bevel" width="106.18932263" height="22.8"/><rect id="shape2" transform="matrix(1.2733921079 0 0 1.2733921079 51.649144544 91.725634284)" fill="#000000" fill-rule="evenodd" stroke="#000000" stroke-width="0.96" stroke-linecap="square" stroke-linejoin="bevel" width="11.28" height="15.36"/><rect id="shape3" transform="matrix(1.2733921079 0 0 1.2733921079 153.72425591 85.918966272)" fill="#000000" fill-rule="evenodd" stroke="#000000" stroke-width="0.96" stroke-linecap="square" stroke-linejoin="bevel" width="17.2173519" height="24.48"/><rect id="shape4" transform="matrix(1.2733921079 0 0 1.2733921079 111.24389519 132.67792447)" fill="#000000" fill-rule="evenodd" stroke="#000000" stroke-width="0.96" stroke-linecap="square" stroke-linejoin="bevel" width="7.68" height="17.76"/><rect id="shape5" transform="matrix(1.2733921079 0 0 1.2733921079 59.595111297 155.29336831)" fill="#000000" fill-rule="evenodd" stroke="#000000" stroke-width="0.96" stroke-linecap="square" stroke-linejoin="bevel" width="90.48" height="66.72"/><rect id="shape6" transform="matrix(1.2733921079 0 0 1.2733921079 23.838260908 170.2684595)" fill="#000000" fill-rule="evenodd" stroke="#000000" stroke-width="0.96" stroke-linecap="square" stroke-linejoin="bevel" width="32.16" height="5.28"/><rect id="shape7" transform="matrix(1.2733921079 0 0 1.2733921079 23.838260908 128.09371288)" fill="#000000" fill-rule="evenodd" stroke="#000000" stroke-width="0.96" stroke-linecap="square" stroke-linejoin="bevel" width="5.52" height="36.24"/><rect id="shape8" transform="matrix(1.2733921079 0 0 1.2733921079 169.92180352 169.65723129)" fill="#000000" fill-rule="evenodd" stroke="#000000" stroke-width="0.96" stroke-linecap="square" stroke-linejoin="bevel" width="30.96" height="5.28"/><rect id="shape9" transform="matrix(1.2733921079 0 0 1.2733921079 206.90111034 169.35161718)" fill="#000000" fill-rule="evenodd" stroke="#000000" stroke-width="0.96" stroke-linecap="square" stroke-linejoin="bevel" width="5.28" height="39.36"/><rect id="shape10" transform="matrix(1.2733921079 0 0 1.2733921079 174.50601511 78.584227731)" fill="#000000" fill-rule="evenodd" stroke="#000000" stroke-width="0.96" stroke-linecap="square" stroke-linejoin="bevel" width="12.72" height="8.88"/><rect id="shape11" transform="matrix(1.2733921079 0 0 1.2733921079 185.81373703 65.442821178)" fill="#000000" fill-rule="evenodd" stroke="#000000" stroke-width="0.96" stroke-linecap="square" stroke-linejoin="bevel" width="10.56" height="19.2"/><rect id="shape12" transform="matrix(1.2733921079 0 0 1.2733921079 178.17338438 40.382464495)" fill="#000000" fill-rule="evenodd" stroke="#000000" stroke-width="0.96" stroke-linecap="square" stroke-linejoin="bevel" width="9.84" height="7.44"/><rect id="shape13" transform="matrix(1.2733921079 0 0 1.2733921079 202.31689875 47.41158893)" fill="#000000" fill-rule="evenodd" stroke="#000000" stroke-width="0.96" stroke-linecap="square" stroke-linejoin="bevel" width="8.16" height="7.92"/><rect id="shape14" transform="matrix(1.2733921079 0 0 1.2733921079 196.20461663 27.546672047)" fill="#000000" fill-rule="evenodd" stroke="#000000" stroke-width="0.96" stroke-linecap="square" stroke-linejoin="bevel" width="6.72" height="7.68"/><rect id="shape15" transform="matrix(1.2733921079 0 0 1.2733921079 182.75759597 19.9063194)" fill="#000000" fill-rule="evenodd" stroke="#000000" stroke-width="0.96" stroke-linecap="square" stroke-linejoin="bevel" width="5.04" height="6.24"/><rect id="shape16" transform="matrix(1.2733921079 0 0 1.2733921079 209.34602318 10.126668012)" fill="#000000" fill-rule="evenodd" stroke="#000000" stroke-width="0.96" stroke-linecap="square" stroke-linejoin="bevel" width="4.8" height="7.68"/><rect id="shape17" transform="matrix(1.2733921079 0 0 1.2733921079 216.68076172 27.852286153)" fill="#000000" fill-rule="evenodd" stroke="#000000" stroke-width="0.96" stroke-linecap="square" stroke-linejoin="bevel" width="4.8" height="7.92"/><rect id="shape18" transform="matrix(1.2733921079 0 0 1.2733921079 190.39794862 4.32)" fill="#000000" fill-rule="evenodd" stroke="#000000" stroke-width="0.96" stroke-linecap="square" stroke-linejoin="bevel" width="6.72" height="8.16"/>
</svg>
