<?xml version="1.0" standalone="no"?>
<!DOCTYPE svg PUBLIC "-//W3C//DTD SVG 20010904//EN" "http://www.w3.org/TR/2001/REC-SVG-20010904/DTD/svg10.dtd">
<!-- Created using Krita: http://krita.org -->
<svg xmlns="http://www.w3.org/2000/svg" 
    xmlns:xlink="http://www.w3.org/1999/xlink"
    xmlns:krita="http://krita.org/namespaces/svg/krita"
    xmlns:sodipodi="http://sodipodi.sourceforge.net/DTD/sodipodi-0.dtd"
    width="245.76pt"
    height="245.76pt"
    viewBox="0 0 245.76 245.76">
<defs/>
<path id="shape0" transform="matrix(2.1195539937 0 0 2.1195539937 33.596402842 73.748614814)" fill="#000000" fill-rule="evenodd" stroke="#000000" stroke-width="0.96" stroke-linecap="square" stroke-linejoin="bevel" d="M0.00684438 21.5732C-0.167675 21.8873 3.04677 20.746 3.76337 20.5428C30.0997 13.0748 58.801 14.374 82.7577 0"/><path id="shape1" transform="matrix(2.1195539937 0 0 2.1195539937 62.083517797 2.1921182263)" fill="#000000" fill-rule="evenodd" stroke="#000000" stroke-width="0.96" stroke-linecap="square" stroke-linejoin="bevel" d="M3.52471 47.7988C-0.381386 51.3143 13.4133 44.2052 18.4792 42.808C24.7315 41.0836 46.7476 39.4212 51.5724 33.6314C54.673 29.9107 35.0976 3.83964 31.0725 0.820838C23.9566 -4.51613 25.6775 17.9184 20.0176 17.9184C13.264 17.9184 -3.22186 -0.237848 0.55527 16.7592C2.66812 26.2671 4.12858 39.3656 2.95229 48.8936"/><path id="shape2" transform="matrix(2.1195539937 0 0 2.1195539937 74.407453221 115.85701728)" fill="#000000" fill-rule="evenodd" stroke="#000000" stroke-width="0.96" stroke-linecap="square" stroke-linejoin="bevel" d="M0 2.83349C0 14.3243 20.7739 11.8916 14.1675 0"/><path id="shape3" transform="matrix(2.1195539937 0 0 2.1195539937 115.65897661 106.45559209)" fill="#000000" fill-rule="evenodd" stroke="#000000" stroke-width="0.96" stroke-linecap="square" stroke-linejoin="bevel" d="M0 4.40337C0 2.15211 2.53476 8.22756 4.32894 9.58737C9.58531 13.5711 13.3092 10.445 17.7093 7.33346C20.4459 5.39831 19.4097 -1.54841 18.8184 0.314127"/><path id="shape4" transform="matrix(2.1195539937 0 0 2.1195539937 105.49775578 119.28254776)" fill="#000000" fill-rule="evenodd" stroke="#000000" stroke-width="0.96" stroke-linecap="square" stroke-linejoin="bevel" d="M0 2.0867C3.41198 1.06311 7.65327 -0.550596 11.3411 0.186974"/><path id="shape5" transform="matrix(2.1195539937 0 0 2.1195539937 108.20085864 127.1177732)" fill="#000000" fill-rule="evenodd" stroke="#000000" stroke-width="0.96" stroke-linecap="square" stroke-linejoin="bevel" d="M2.58853 0C2.58853 0.737941 -0.414 9.13452 0.0484099 9.27324C0.307503 9.35097 2.22318 7.58235 2.12344 8.21068"/><path id="shape6" transform="matrix(2.1195539937 0 0 2.1195539937 125.74436744 144.42391969)" fill="#000000" fill-rule="evenodd" stroke="#000000" stroke-width="0.96" stroke-linecap="square" stroke-linejoin="bevel" d="M0 3.74855C0.691077 2.91925 4.65148 -0.561301 4.04273 0.0778876"/><path id="shape7" transform="matrix(2.1195539937 0 0 2.1195539937 148.17902352 104.59626135)" fill="#000000" fill-rule="evenodd" stroke="#000000" stroke-width="0.96" stroke-linecap="square" stroke-linejoin="bevel" d="M0.00520193 28.8179C-0.0994926 28.9592 1.40971 27.4306 1.50781 27.3367C2.87937 26.0252 4.24854 24.7091 5.65787 23.4407C9.37851 20.0921 13.7661 17.1391 17.2852 13.6201C17.5904 13.3149 15.3956 13.4232 15.3533 13.4269C13.1654 13.6162 9.12818 15.5842 9.12818 15.5842C9.12818 15.5842 10.6037 13.8604 11.4179 13.0727C13.1411 11.4055 13.0663 11.4085 14.8524 9.85282C17.6391 7.42573 20.4499 5.04071 23.0094 2.38271C23.4268 1.94925 25.2699 0 25.9073 0C26.4339 0 24.9871 0.513443 24.512 0.740571C23.5407 1.205 22.49 1.52965 21.471 1.86753C18.4257 2.87728 15.2524 4.59484 12.0261 4.99081C11.0063 5.11596 9.65446 5.36472 8.69887 5.69918C8.33407 5.82686 7.02186 6.06545 7.41092 6.18216"/><path id="shape8" transform="matrix(2.1195539937 0 0 2.1195539937 67.495321632 142.33368541)" fill="#000000" fill-rule="evenodd" stroke="#000000" stroke-width="0.96" stroke-linecap="square" stroke-linejoin="bevel" d="M20.5053 14.0402C18.2566 11.5103 13.0418 10.8921 9.98709 10.5949C9.6469 10.5618 4.54988 10.7902 4.29864 10.1119C4.08405 9.53252 7.23229 6.93344 7.6974 6.63444C7.90764 6.49928 9.31502 5.90251 9.16423 5.73287C7.74994 4.1418 0.527061 6.31418 0.00547333 3.02818C-0.151567 2.03883 3.11861 0.835942 3.65467 0.613272C4.01403 0.463998 5.2466 -0.0306351 5.19305 0.00149562"/><path id="shape9" transform="matrix(2.1195539937 0 0 2.1195539937 94.901080477 147.49649283)" fill="#000000" fill-rule="evenodd" stroke="#000000" stroke-width="0.96" stroke-linecap="square" stroke-linejoin="bevel" d="M34.2288 0.302591C33.4612 -0.848883 37.1385 2.27444 37.1625 2.29891C39.3193 4.50043 41.0406 6.61807 42.4574 9.35044C46.4761 17.1009 55.2885 27.1721 50.6502 36.9126C48.5565 41.3092 41.4986 41.2049 37.5202 41.839C34.836 42.2668 32.2933 43.4858 29.6136 43.8031C23.4677 44.5309 17.382 43.1453 11.2604 43.0947C8.06021 43.0683 3.17735 44.5137 0.348552 41.9678C-1.00285 40.7515 2.0126 30.8553 1.99427 29.0239C1.96671 26.2713 1.77033 23.9198 2.03004 21.2318C2.30583 18.3774 1.78225 13.4154 3.99774 11.0892C5.11249 9.9187 8.20867 11.9207 9.90085 11.54C14.817 10.4338 20.6845 8.76921 25.4636 7.09653C27.8017 6.27818 31.6567 -0.61931 33.871 0.045001C35.902 0.654299 31.4283 3.72129 31.0447 3.87665C29.2327 4.61053 28.0801 6.65509 26.3222 7.64391C23.1575 9.42405 18.0997 9.3728 15.9471 12.8601C13.2232 17.2728 22.2015 14.6575 22.5299 14.953C23.7208 16.0248 21.6857 18.0596 21.5282 19.654C21.1603 23.379 21.8016 30.7097 26.68 31.6642C30.4698 32.4057 31.1773 26.09 31.152 23.6789C31.1086 19.5313 26.8156 17.5969 25.392 14.1803C24.8397 12.8547 27.1408 12.0681 26.7873 10.4774C26.5549 9.43166 24.8338 9.35339 25.1416 8.57767"/><path id="shape10" transform="matrix(2.1195539937 0 0 2.1195539937 173.20640015 148.90013805)" fill="#000000" fill-rule="evenodd" stroke="#000000" stroke-width="0.96" stroke-linecap="square" stroke-linejoin="bevel" d="M0.0751154 0.896106C-0.69474 0.434193 4.67238 -0.48522 6.1571 0.316529C9.92061 2.34882 13.6521 6.17526 15.6736 9.94396C18.0165 14.3117 15.4484 16.7729 13.6344 20.6661C13.1177 21.775 12.6649 22.9747 12.3106 24.1436C12.1732 24.5971 11.7858 25.6463 11.8813 25.5604"/><path id="shape11" transform="matrix(2.1195539937 0 0 2.1195539937 22.217142857 193.17673487)" fill="#000000" fill-rule="evenodd" stroke="#000000" stroke-width="0.96" stroke-linecap="square" stroke-linejoin="bevel" d="M25.2672 4.34879C24.8318 4.34879 26.0049 2.78888 26.3405 2.44906C27.5102 1.26472 29.8377 0.608629 31.4208 1.51529C35.1455 3.64854 34.4144 6.49977 31.6712 9.243C25.2685 15.6457 16.0213 8.0544 8.84586 7.95505C5.46208 7.90819 -0.258905 8.54452 0.00908968 3.47942C0.35731 -3.10195 12.8864 1.59321 16.2874 2.03047C18.6943 2.33994 20.5038 2.02737 22.5482 3.25403C22.8581 3.43994 24.9701 4.76602 24.8737 4.89616"/>
</svg>
